<mxfile host="app.diagrams.net" modified="2024-05-12T03:17:32.166Z" agent="Mozilla/5.0 (Windows NT 10.0; Win64; x64) AppleWebKit/537.36 (KHTML, like Gecko) Chrome/124.0.0.0 Safari/537.36 Edg/124.0.0.0" etag="3aMiwHVDilckKJEqhcm3" version="24.4.0" type="github">
  <diagram name="PÃ¡gina-1" id="KJYCPGOZGC9ZO5kiEurD">
    <mxGraphModel dx="949" dy="-62" grid="1" gridSize="10" guides="1" tooltips="1" connect="1" arrows="1" fold="1" page="1" pageScale="1" pageWidth="827" pageHeight="1169" math="0" shadow="0">
      <root>
        <mxCell id="0" />
        <mxCell id="1" parent="0" />
        <mxCell id="rhiHU5bIwHDqxUT2BhXn-1" value="" style="edgeStyle=orthogonalEdgeStyle;rounded=0;orthogonalLoop=1;jettySize=auto;html=1;" edge="1" parent="1" source="rhiHU5bIwHDqxUT2BhXn-2" target="rhiHU5bIwHDqxUT2BhXn-4">
          <mxGeometry relative="1" as="geometry" />
        </mxCell>
        <mxCell id="rhiHU5bIwHDqxUT2BhXn-2" value="INICIO 4" style="ellipse;whiteSpace=wrap;html=1;" vertex="1" parent="1">
          <mxGeometry x="113.75" y="1270" width="102.5" height="60" as="geometry" />
        </mxCell>
        <mxCell id="rhiHU5bIwHDqxUT2BhXn-3" value="" style="edgeStyle=orthogonalEdgeStyle;rounded=0;orthogonalLoop=1;jettySize=auto;html=1;" edge="1" parent="1" source="rhiHU5bIwHDqxUT2BhXn-4" target="rhiHU5bIwHDqxUT2BhXn-7">
          <mxGeometry relative="1" as="geometry" />
        </mxCell>
        <mxCell id="rhiHU5bIwHDqxUT2BhXn-4" value="n,a,b,x,y" style="whiteSpace=wrap;html=1;" vertex="1" parent="1">
          <mxGeometry x="105" y="1360" width="120" height="60" as="geometry" />
        </mxCell>
        <mxCell id="rhiHU5bIwHDqxUT2BhXn-5" value="" style="edgeStyle=orthogonalEdgeStyle;rounded=0;orthogonalLoop=1;jettySize=auto;html=1;" edge="1" parent="1" source="rhiHU5bIwHDqxUT2BhXn-7">
          <mxGeometry relative="1" as="geometry">
            <mxPoint x="276.25" y="1505" as="targetPoint" />
          </mxGeometry>
        </mxCell>
        <mxCell id="rhiHU5bIwHDqxUT2BhXn-6" value="" style="edgeStyle=orthogonalEdgeStyle;rounded=0;orthogonalLoop=1;jettySize=auto;html=1;" edge="1" parent="1" source="rhiHU5bIwHDqxUT2BhXn-7" target="rhiHU5bIwHDqxUT2BhXn-12">
          <mxGeometry relative="1" as="geometry" />
        </mxCell>
        <mxCell id="rhiHU5bIwHDqxUT2BhXn-7" value="n&amp;gt;a &amp;amp;&amp;amp; n&amp;lt;b" style="rhombus;whiteSpace=wrap;html=1;" vertex="1" parent="1">
          <mxGeometry x="103.75" y="1450" width="122.5" height="110" as="geometry" />
        </mxCell>
        <mxCell id="rhiHU5bIwHDqxUT2BhXn-8" style="edgeStyle=orthogonalEdgeStyle;rounded=0;orthogonalLoop=1;jettySize=auto;html=1;" edge="1" parent="1" target="rhiHU5bIwHDqxUT2BhXn-18">
          <mxGeometry relative="1" as="geometry">
            <mxPoint x="396.25" y="1505" as="sourcePoint" />
          </mxGeometry>
        </mxCell>
        <mxCell id="rhiHU5bIwHDqxUT2BhXn-9" value="si" style="text;html=1;align=center;verticalAlign=middle;whiteSpace=wrap;rounded=0;" vertex="1" parent="1">
          <mxGeometry x="216.25" y="1465" width="60" height="30" as="geometry" />
        </mxCell>
        <mxCell id="rhiHU5bIwHDqxUT2BhXn-10" value="" style="edgeStyle=orthogonalEdgeStyle;rounded=0;orthogonalLoop=1;jettySize=auto;html=1;" edge="1" parent="1" source="rhiHU5bIwHDqxUT2BhXn-12">
          <mxGeometry relative="1" as="geometry">
            <mxPoint x="265" y="1640" as="targetPoint" />
          </mxGeometry>
        </mxCell>
        <mxCell id="rhiHU5bIwHDqxUT2BhXn-11" value="" style="edgeStyle=orthogonalEdgeStyle;rounded=0;orthogonalLoop=1;jettySize=auto;html=1;" edge="1" parent="1" source="rhiHU5bIwHDqxUT2BhXn-12">
          <mxGeometry relative="1" as="geometry">
            <mxPoint x="165" y="1760" as="targetPoint" />
          </mxGeometry>
        </mxCell>
        <mxCell id="rhiHU5bIwHDqxUT2BhXn-12" value="n&amp;gt;b" style="rhombus;whiteSpace=wrap;html=1;" vertex="1" parent="1">
          <mxGeometry x="125" y="1600" width="80" height="80" as="geometry" />
        </mxCell>
        <mxCell id="rhiHU5bIwHDqxUT2BhXn-13" style="edgeStyle=orthogonalEdgeStyle;rounded=0;orthogonalLoop=1;jettySize=auto;html=1;" edge="1" parent="1" target="rhiHU5bIwHDqxUT2BhXn-18">
          <mxGeometry relative="1" as="geometry">
            <mxPoint x="385" y="1640" as="sourcePoint" />
          </mxGeometry>
        </mxCell>
        <mxCell id="rhiHU5bIwHDqxUT2BhXn-14" value="si" style="text;html=1;align=center;verticalAlign=middle;whiteSpace=wrap;rounded=0;" vertex="1" parent="1">
          <mxGeometry x="190.25" y="1600" width="60" height="30" as="geometry" />
        </mxCell>
        <mxCell id="rhiHU5bIwHDqxUT2BhXn-15" value="no" style="text;html=1;align=center;verticalAlign=middle;whiteSpace=wrap;rounded=0;" vertex="1" parent="1">
          <mxGeometry x="168.75" y="1560" width="60" height="30" as="geometry" />
        </mxCell>
        <mxCell id="rhiHU5bIwHDqxUT2BhXn-16" style="edgeStyle=orthogonalEdgeStyle;rounded=0;orthogonalLoop=1;jettySize=auto;html=1;entryX=0;entryY=0.5;entryDx=0;entryDy=0;" edge="1" parent="1" target="rhiHU5bIwHDqxUT2BhXn-18">
          <mxGeometry relative="1" as="geometry">
            <mxPoint x="225" y="1800" as="sourcePoint" />
          </mxGeometry>
        </mxCell>
        <mxCell id="rhiHU5bIwHDqxUT2BhXn-17" value="no" style="text;html=1;align=center;verticalAlign=middle;whiteSpace=wrap;rounded=0;" vertex="1" parent="1">
          <mxGeometry x="176.25" y="1718" width="60" height="30" as="geometry" />
        </mxCell>
        <mxCell id="rhiHU5bIwHDqxUT2BhXn-18" value="fin" style="ellipse;whiteSpace=wrap;html=1;" vertex="1" parent="1">
          <mxGeometry x="436.25" y="1748" width="120" height="80" as="geometry" />
        </mxCell>
        <mxCell id="rhiHU5bIwHDqxUT2BhXn-19" value="mostrar&amp;nbsp;&lt;div&gt;n-(n*x/100)&lt;br&gt;&lt;/div&gt;" style="shape=parallelogram;perimeter=parallelogramPerimeter;whiteSpace=wrap;html=1;fixedSize=1;" vertex="1" parent="1">
          <mxGeometry x="268.25" y="1465" width="138" height="65" as="geometry" />
        </mxCell>
        <mxCell id="rhiHU5bIwHDqxUT2BhXn-20" value="mostrar&lt;div&gt;n-(n*y/100)&lt;br&gt;&lt;/div&gt;" style="shape=parallelogram;perimeter=parallelogramPerimeter;whiteSpace=wrap;html=1;fixedSize=1;" vertex="1" parent="1">
          <mxGeometry x="251.25" y="1605" width="145" height="75" as="geometry" />
        </mxCell>
        <mxCell id="rhiHU5bIwHDqxUT2BhXn-21" value="mostrar&lt;div&gt;n&lt;/div&gt;" style="shape=parallelogram;perimeter=parallelogramPerimeter;whiteSpace=wrap;html=1;fixedSize=1;" vertex="1" parent="1">
          <mxGeometry x="100" y="1758" width="136.25" height="72" as="geometry" />
        </mxCell>
      </root>
    </mxGraphModel>
  </diagram>
</mxfile>
